<svg width="164" height="38" viewBox="0 0 164 38" fill="none" xmlns="http://www.w3.org/2000/svg">
<g filter="url(#filter0_dd_13001_399)">
<rect x="3.1" y="2.1" width="31.8" height="31.8" rx="7.9" fill="white"/>
<rect x="3.1" y="2.1" width="31.8" height="31.8" rx="7.9" fill="url(#paint0_linear_13001_399)"/>
<rect x="3.1" y="2.1" width="31.8" height="31.8" rx="7.9" stroke="#D0D5DD" stroke-width="0.2"/>
<path d="M18.3546 13.1828C22.7105 11.4504 27.4742 12.8185 29.6373 14.9133C30.106 15.3671 30.5041 15.8275 30.845 16.2852C31.0394 15.2107 31.0552 14.1405 30.8681 13.1055C30.1847 9.32649 26.6195 7.18561 23.4233 8.29149C20.2415 9.3924 19.0005 11.5321 19.0005 11.5321C19.0005 11.5321 17.7595 9.3924 14.5777 8.29149C11.3812 7.18561 7.81603 9.32672 7.1328 13.1055C6.62842 15.8944 7.58356 18.9392 9.61033 21.6298C10.0372 21.7732 10.4847 21.8809 10.9586 21.9431C13.7978 22.3163 14.8184 21.557 16.0178 21.0486C16.8142 20.7113 17.4134 21.0942 17.3843 21.3626C17.3392 21.7786 15.7693 22.4895 16.106 22.6388C17.4351 23.2285 19.0718 23.2334 20.3053 22.18C21.838 20.8712 22.4114 21.7659 22.4114 21.7659C22.4114 21.7659 21.6502 23.7076 19.3581 24.6717C17.4457 25.4761 15.4419 25.6743 13.6107 25.4683C15.19 26.5846 17.0035 27.5204 19.0005 28.1883C24.7099 26.2784 28.9276 22.1871 30.4145 17.9096C29.4072 16.9157 28.1716 16.2996 26.6988 16.0763C23.8674 15.6471 22.8322 16.3863 21.6228 16.8708C20.8198 17.1926 20.2285 16.7978 20.263 16.5299C20.3161 16.1148 21.8999 15.4351 21.5661 15.279C20.249 14.6633 18.6125 14.626 17.3585 15.6549C15.8003 16.9332 15.2446 16.0274 15.2446 16.0274C15.2446 16.0274 16.0438 14.1015 18.3546 13.1828ZM17.2709 18.5052H18.3709V17.4052H19.6296V18.5052H20.7296V19.7639H19.6296V20.8639H18.3709V19.7639H17.2709V18.5052Z" fill="url(#paint1_linear_13001_399)"/>
<path d="M17.2709 18.5052H18.3709V17.4052H19.6296V18.5052H20.7295V19.7639H19.6378C21.2597 20.5834 24.2383 21.8027 27.8177 22.3451C28.9956 20.9517 29.8813 19.4428 30.4143 17.9096C29.4069 16.9157 28.1713 16.2996 26.6986 16.0763C23.8672 15.647 22.8319 16.3863 21.6226 16.8708C20.8196 17.1926 20.2282 16.7978 20.2627 16.5299C20.3159 16.1148 21.8997 15.4351 21.5659 15.279C20.2488 14.6633 18.6123 14.626 17.3583 15.6548C15.8 16.9332 15.2443 16.0274 15.2443 16.0274C15.2443 16.0274 16.0438 14.1013 18.3543 13.1823C22.7102 11.4499 27.4739 12.818 29.637 14.9128C30.1057 15.3666 30.5038 15.8271 30.8447 16.2847C31.0392 15.2102 31.055 14.14 30.8679 13.105C30.1844 9.326 26.6192 7.18512 23.423 8.291C20.2412 9.39191 19.0002 11.5316 19.0002 11.5316C19.0002 11.5316 17.7592 9.39191 14.5774 8.291C12.7519 7.65927 10.8067 8.0883 9.34619 9.27521C10.0323 10.7442 10.836 12.1168 13.1254 14.8773C14.9868 17.1222 17.2709 18.5052 17.2709 18.5052Z" fill="url(#paint2_linear_13001_399)"/>
<path opacity="0.31" d="M27.277 9.64954C24.2712 8.13944 21.169 10.4892 20.1851 11.7299C21.882 11.3725 23.3668 11.1892 25.2457 11.5839C28.0252 12.1679 29.0654 13.1715 30.3064 14.6542C30.0871 11.9069 28.3519 10.1896 27.277 9.64954Z" fill="url(#paint3_linear_13001_399)"/>
</g>
<path d="M53.112 28.288C51.976 28.288 50.92 28.08 49.944 27.664C48.984 27.248 48.152 26.672 47.448 25.936C46.76 25.184 46.256 24.312 45.936 23.32L48.648 22.144C49.08 23.168 49.704 23.976 50.52 24.568C51.336 25.144 52.256 25.432 53.28 25.432C53.856 25.432 54.352 25.344 54.768 25.168C55.2 24.976 55.528 24.72 55.752 24.4C55.992 24.08 56.112 23.696 56.112 23.248C56.112 22.72 55.952 22.288 55.632 21.952C55.328 21.6 54.864 21.328 54.24 21.136L50.808 20.032C49.416 19.6 48.368 18.952 47.664 18.088C46.96 17.224 46.608 16.208 46.608 15.04C46.608 14.016 46.856 13.112 47.352 12.328C47.864 11.544 48.568 10.936 49.464 10.504C50.376 10.056 51.416 9.832 52.584 9.832C53.656 9.832 54.64 10.024 55.536 10.408C56.432 10.776 57.2 11.296 57.84 11.968C58.496 12.624 58.984 13.4 59.304 14.296L56.616 15.496C56.264 14.6 55.736 13.912 55.032 13.432C54.328 12.936 53.512 12.688 52.584 12.688C52.04 12.688 51.56 12.784 51.144 12.976C50.728 13.152 50.4 13.408 50.16 13.744C49.936 14.064 49.824 14.448 49.824 14.896C49.824 15.392 49.984 15.832 50.304 16.216C50.624 16.584 51.112 16.872 51.768 17.08L55.056 18.112C56.48 18.576 57.544 19.216 58.248 20.032C58.968 20.848 59.328 21.856 59.328 23.056C59.328 24.08 59.064 24.984 58.536 25.768C58.008 26.552 57.28 27.168 56.352 27.616C55.424 28.064 54.344 28.288 53.112 28.288ZM65.8459 28.288C64.9339 28.288 64.1419 28.136 63.4699 27.832C62.7979 27.528 62.2779 27.096 61.9099 26.536C61.5419 25.96 61.3579 25.296 61.3579 24.544C61.3579 23.824 61.5179 23.184 61.8379 22.624C62.1579 22.048 62.6539 21.568 63.3259 21.184C63.9979 20.8 64.8459 20.528 65.8699 20.368L70.1419 19.672V22.072L66.4699 22.696C65.8459 22.808 65.3819 23.008 65.0779 23.296C64.7739 23.584 64.6219 23.96 64.6219 24.424C64.6219 24.872 64.7899 25.232 65.1259 25.504C65.4779 25.76 65.9099 25.888 66.4219 25.888C67.0779 25.888 67.6539 25.752 68.1499 25.48C68.6619 25.192 69.0539 24.8 69.3259 24.304C69.6139 23.808 69.7579 23.264 69.7579 22.672V19.312C69.7579 18.752 69.5339 18.288 69.0859 17.92C68.6539 17.536 68.0779 17.344 67.3579 17.344C66.6859 17.344 66.0859 17.528 65.5579 17.896C65.0459 18.248 64.6699 18.72 64.4299 19.312L61.8619 18.064C62.1179 17.376 62.5179 16.784 63.0619 16.288C63.6219 15.776 64.2779 15.376 65.0299 15.088C65.7819 14.8 66.5979 14.656 67.4779 14.656C68.5499 14.656 69.4939 14.856 70.3099 15.256C71.1259 15.64 71.7579 16.184 72.2059 16.888C72.6699 17.576 72.9019 18.384 72.9019 19.312V28H69.9259V25.768L70.5979 25.72C70.2619 26.28 69.8619 26.752 69.3979 27.136C68.9339 27.504 68.4059 27.792 67.8139 28C67.2219 28.192 66.5659 28.288 65.8459 28.288ZM75.8078 28V14.944H78.7598V17.512L78.5198 17.056C78.8238 16.272 79.3198 15.68 80.0078 15.28C80.7118 14.864 81.5278 14.656 82.4558 14.656C83.4158 14.656 84.2638 14.864 84.9998 15.28C85.7518 15.696 86.3358 16.28 86.7518 17.032C87.1678 17.768 87.3758 18.624 87.3758 19.6V28H84.2318V20.344C84.2318 19.768 84.1198 19.272 83.8958 18.856C83.6718 18.44 83.3598 18.12 82.9598 17.896C82.5758 17.656 82.1198 17.536 81.5918 17.536C81.0798 17.536 80.6238 17.656 80.2238 17.896C79.8238 18.12 79.5118 18.44 79.2878 18.856C79.0638 19.272 78.9518 19.768 78.9518 20.344V28H75.8078ZM90.0343 28V14.944H93.1783V28H90.0343ZM90.0343 13.48V10.12H93.1783V13.48H90.0343ZM102.033 28.144C100.561 28.144 99.4172 27.744 98.6012 26.944C97.8012 26.128 97.4012 24.984 97.4012 23.512V17.752H95.1452V14.944H95.3852C96.0252 14.944 96.5212 14.776 96.8732 14.44C97.2252 14.104 97.4012 13.616 97.4012 12.976V11.968H100.545V14.944H103.545V17.752H100.545V23.344C100.545 23.776 100.617 24.144 100.761 24.448C100.921 24.752 101.161 24.984 101.481 25.144C101.817 25.304 102.241 25.384 102.753 25.384C102.865 25.384 102.993 25.376 103.137 25.36C103.297 25.344 103.449 25.328 103.593 25.312V28C103.369 28.032 103.113 28.064 102.825 28.096C102.537 28.128 102.273 28.144 102.033 28.144ZM105.995 28V14.944H109.139V28H105.995ZM105.995 13.48V10.12H109.139V13.48H105.995Z" fill="white"/>
<defs>
<filter id="filter0_dd_13001_399" x="0" y="0" width="38" height="38" filterUnits="userSpaceOnUse" color-interpolation-filters="sRGB">
<feFlood flood-opacity="0" result="BackgroundImageFix"/>
<feColorMatrix in="SourceAlpha" type="matrix" values="0 0 0 0 0 0 0 0 0 0 0 0 0 0 0 0 0 0 127 0" result="hardAlpha"/>
<feOffset dy="1"/>
<feGaussianBlur stdDeviation="1"/>
<feColorMatrix type="matrix" values="0 0 0 0 0.0627451 0 0 0 0 0.0941176 0 0 0 0 0.156863 0 0 0 0.06 0"/>
<feBlend mode="normal" in2="BackgroundImageFix" result="effect1_dropShadow_13001_399"/>
<feColorMatrix in="SourceAlpha" type="matrix" values="0 0 0 0 0 0 0 0 0 0 0 0 0 0 0 0 0 0 127 0" result="hardAlpha"/>
<feOffset dy="1"/>
<feGaussianBlur stdDeviation="1.5"/>
<feColorMatrix type="matrix" values="0 0 0 0 0.0627451 0 0 0 0 0.0941176 0 0 0 0 0.156863 0 0 0 0.1 0"/>
<feBlend mode="normal" in2="effect1_dropShadow_13001_399" result="effect2_dropShadow_13001_399"/>
<feBlend mode="normal" in="SourceGraphic" in2="effect2_dropShadow_13001_399" result="shape"/>
</filter>
<linearGradient id="paint0_linear_13001_399" x1="19" y1="2" x2="19" y2="34" gradientUnits="userSpaceOnUse">
<stop stop-color="white"/>
<stop offset="1" stop-color="#D0D5DD"/>
</linearGradient>
<linearGradient id="paint1_linear_13001_399" x1="10.1989" y1="24.2137" x2="27.8347" y2="6.57791" gradientUnits="userSpaceOnUse">
<stop stop-color="#0076C1"/>
<stop offset="0.0737" stop-color="#0B82C6"/>
<stop offset="0.2766" stop-color="#269ED3"/>
<stop offset="0.4546" stop-color="#36AFDA"/>
<stop offset="0.587" stop-color="#3CB5DD"/>
</linearGradient>
<linearGradient id="paint2_linear_13001_399" x1="10.1388" y1="24.2537" x2="27.8274" y2="6.56509" gradientUnits="userSpaceOnUse">
<stop stop-color="#00A482"/>
<stop offset="1" stop-color="#79DD83"/>
</linearGradient>
<linearGradient id="paint3_linear_13001_399" x1="24.8608" y1="13.5073" x2="28.5288" y2="10.1132" gradientUnits="userSpaceOnUse">
<stop stop-color="#00A482"/>
<stop offset="1" stop-color="#79DD83"/>
</linearGradient>
</defs>
</svg>
